# xmcd
# Track frame offsets:
# 150
# 12092
# 28870
# 46088
# 62744
# 79262
# 92943
# 106367
# 117274
# 133347
# 153111
# 167938
# 181490
# 201141
# 219816
#
# Disc length: 3172 seconds
# Revision: 0
# Processed by: cddbd v1.5.1PL0 Copyright (c) Steve Scherf et al.
# Submitted via: VisiTrax 2.9.10.228 - For more info visit www.synapsa.com
#
DISCID=c90c620f
DTITLE=McEntire, Reba - CB90055
DYEAR=1900
DGENRE=Karaoke
TTITLE0=Have I Got A Deal For You
TTITLE1=So, So, So Long
TTITLE2=How Was I To Know
TTITLE3=What If
TTITLE4=I'd Rather Ride Around With You
TTITLE5=Sunday Kind Of Love, A
TTITLE6=I'm In Love All Over
TTITLE7=Before I Met You
TTITLE8=And Still
TTITLE9=She Thinks His Name Was John
TTITLE10=Fear Of Being Alone, The
TTITLE11=Wrong Night
TTITLE12=What If It's You
TTITLE13=One Honest Heart
TTITLE14=Forever Love
EXTD=
EXTT0=
EXTT1=
EXTT2=
EXTT3=
EXTT4=
EXTT5=
EXTT6=
EXTT7=
EXTT8=
EXTT9=
EXTT10=
EXTT11=
EXTT12=
EXTT13=
EXTT14=
PLAYORDER=
